<svg xmlns="http://www.w3.org/2000/svg" xmlns:xlink="http://www.w3.org/1999/xlink" xmlns:serif="http://www.serif.com/" viewBox="0 0 3840 2160" version="1.1" xml:space="preserve" style="fill-rule:evenodd;clip-rule:evenodd;stroke-linejoin:round;stroke-miterlimit:2;" viewport="0 0 1280px 1280px">
    <g transform="matrix(1.46922,0,0,1.46922,-304.773,-450.38)">
        <g id="Stripped">
            <g id="Logo">
                <g transform="matrix(8.85518,0,0,8.85518,-4764.76,-5389.47)">
                    <g id="Typography">
                        <text x="597.397px" y="808.715px" style="font-family:'Gordita-Medium', 'Gordita';font-weight:500;font-size:47.455px;">COL<tspan x="705.927px 748.637px " y="808.715px 808.715px ">OU</tspan>R</text>
                    </g>
                </g>
                <g id="FL2" transform="matrix(2.51595,0,0,2.51499,406.936,230.631)">
                    <path d="M171.321,361.688L176.27,401.298L190.056,394.826C190.056,394.826 202.094,389.24 220.871,385.515C230.27,383.65 241.335,382.255 253.427,382.255C272.603,382.255 295.877,390.7 316.79,394.173C323.136,395.227 329.291,395.874 335.11,395.874C344.498,395.874 354.469,392.839 363.668,388.428C381.941,379.665 397.069,365.701 397.069,365.701L400.154,362.852L405.918,305.197L416.794,348.718L430.923,292.18C430.944,292.101 431.665,289.391 433.46,284.977C434.345,282.798 435.478,280.241 436.898,277.399L450.207,254.133C451.821,251.326 454.686,247.834 457.71,244.38C463.112,238.214 469.113,232.272 471.268,230.173C473.252,232.016 479.221,237.678 484.927,244.129C487.832,247.413 490.73,250.86 492.828,254.152C498.38,262.798 512.962,294.164 528.139,320.544C534.339,331.321 540.636,341.282 546.455,348.741C556.659,361.713 567.532,374.168 579.324,385.568C591.273,397.121 604.092,407.611 618.106,416.394C634.939,427.026 654.212,438.635 674.465,447.138C688.01,452.825 701.964,457.143 715.918,458.871C727.411,460.345 743.421,461.31 759.665,462.033C791.984,463.472 825.196,463.811 825.196,463.811L825.227,462.426C825.227,462.426 792.076,461.247 759.876,458.656C743.813,457.363 728.003,455.675 716.682,453.747C703.368,451.42 690.184,446.594 677.452,440.487C658.08,431.196 639.827,418.904 623.9,407.7C611.074,398.611 599.457,387.981 588.761,376.355C578.103,364.769 568.436,352.181 559.411,339.161C554.364,331.942 549.067,322.336 543.789,312.033C529.696,284.521 516.173,252.109 510.934,243.083C507.839,237.794 503.351,232.02 498.917,226.969C494.684,222.148 490.535,218.003 488.004,215.559C488.004,215.559 471.25,148.516 471.25,148.516L454.471,215.656C451.47,218.627 446.039,224.124 441.072,229.795C436.974,234.473 433.215,239.298 431.029,243.101C427.573,249.114 425.154,252.882 422.635,257.227C422.062,258.216 421.484,259.232 420.893,260.308L400.979,100.933L385.357,288.464C385.357,288.464 380.499,337.069 378.997,352.096C374.339,355.98 364.876,363.306 354.106,368.471C347.961,371.418 341.381,373.743 335.11,373.743C315.934,373.743 292.66,365.298 271.747,361.825C265.401,360.77 259.246,360.124 253.427,360.124C239.737,360.124 227.209,361.696 216.568,363.807C207.87,365.532 200.417,367.619 194.593,369.509C194.593,369.509 191.27,342.919 191.27,342.919L171.743,30.365L160.703,207.069C160.703,207.069 157.639,250.845 155.598,288.784C154.04,317.758 153.138,343.32 153.138,343.32L153.163,343.007L149.73,392.436C147.38,393.487 144.523,394.84 141.706,396.361C138.399,398.147 135.139,400.129 132.675,402.14L122.494,411.149C122.494,411.149 116.302,372.14 116.302,372.14C116.317,372.264 104.184,274.036 104.184,274.036L99.719,311.939L94.178,372.598C94.175,372.62 91.661,404.83 87.781,429.047C86.13,439.359 84.235,448.2 82.234,452.398C80.703,455.597 77.119,457.71 73.119,459.182C64.985,462.175 55.057,462.426 55.057,462.426L55.073,463.811C55.073,463.811 65.296,463.831 73.755,460.991C78.365,459.443 82.42,457.008 84.271,453.41C86.468,449.158 88.704,440.129 90.792,429.586C95.584,405.395 99.558,373.163 99.558,373.163C99.553,373.208 102.794,350.767 102.794,350.767C102.794,350.767 104.651,373.581 104.651,373.581C104.659,373.643 111.693,440.299 111.693,440.299L122.135,431.287L142.742,415.144C144.555,413.811 146.959,412.582 149.358,411.439C155.17,408.668 161.129,406.701 161.129,406.701L166.368,404.8L166.888,399.249L171.321,361.688Z" style="fill:rgb(235,80,70);"/>
                </g>
            </g>
        </g>
    </g>
</svg>